<svg id="Layer_1" enable-background="new 0 0 512 512" height="512" viewBox="0 0 512 512" width="512" xmlns="http://www.w3.org/2000/svg"><g><g><g><g><path d="m110.381 45.558h291.237v378.884h-291.237z" fill="#54768a"/><path d="m361.619 45.558h40v378.884h-40z" fill="#416a82"/><g><path d="m401.619 27.5c0-11.046-9.006-20-20.116-20h-251.006c-11.11 0-20.116 8.954-20.116 20v22.57h291.237v-22.57z" fill="#e0efff"/></g><path d="m381.503 7.5h-40c11.11 0 20.116 8.954 20.116 20v22.57h40v-22.57c0-11.046-9.006-20-20.116-20z" fill="#d4e8ff"/><g><path d="m110.381 416v68.5c0 11.046 9.006 20 20.116 20h251.006c11.11 0 20.116-8.954 20.116-20v-68.5z" fill="#e0efff"/></g><path d="m361.619 416v68.5c0 11.046-9.006 20-20.116 20h40c11.11 0 20.116-8.954 20.116-20v-68.5z" fill="#d4e8ff"/><path d="m271.679 474.594h-31.358c-8.698 0-15.749-7.051-15.749-15.749 0-8.698 7.051-15.749 15.749-15.749h31.358c8.698 0 15.749 7.051 15.749 15.749 0 8.698-7.051 15.749-15.749 15.749z" fill="#bfdeff"/><g><g><path d="m247.822 106.207c-13.044 0-24.26 8.63-29.213 20.995-4.953-12.365-16.168-20.995-29.213-20.995-17.631 0-31.923 15.763-31.923 35.208 0 44.509 61.136 69.088 61.136 69.088s60.534-24.912 61.136-69.088c.265-19.442-14.293-35.208-31.923-35.208z" fill="#ff5492"/><path d="m322.6 151.136c-13.044 0-24.26 8.63-29.213 20.995-4.953-12.365-16.168-20.995-29.213-20.995-17.631 0-31.923 15.763-31.923 35.208 0 44.509 61.136 69.088 61.136 69.088s60.534-24.912 61.136-69.088c.265-19.443-14.292-35.208-31.923-35.208z" fill="#ff91c1"/></g></g></g></g><g><path d="m28.569 193.829h99.73c11.636 0 21.069 9.342 21.069 20.867v42.53c0 11.524-9.433 20.867-21.069 20.867h-63.95v24.468l-24.705-24.468h-11.075c-11.636 0-21.069-9.342-21.069-20.867v-42.53c0-11.524 9.433-20.867 21.069-20.867z" fill="#fff0ca"/></g><g fill="#f9e8b7"><path d="m64.349 302.56v-24.468h-24.706z"/><path d="m128.3 193.829h-40c11.636 0 21.069 9.342 21.069 20.867v42.53c0 11.524-9.433 20.867-21.069 20.867h40c11.636 0 21.069-9.342 21.069-20.867v-42.53c0-11.524-9.433-20.867-21.069-20.867z"/></g><g><path d="m483.431 286.705h-99.731c-11.636 0-21.069 9.342-21.069 20.867v42.53c0 11.524 9.433 20.867 21.069 20.867h63.951v24.468l24.705-24.468h11.074c11.636 0 21.069-9.342 21.069-20.867v-42.53c.001-11.525-9.432-20.867-21.068-20.867z" fill="#ffdb0d"/></g><path d="m483.431 286.705h-40c11.636 0 21.069 9.342 21.069 20.867v42.53c0 11.524-9.433 20.867-21.069 20.867h4.22v24.468l24.705-24.468h11.074c11.636 0 21.069-9.342 21.069-20.867v-42.53c.001-11.525-9.432-20.867-21.068-20.867z" fill="#f5d000"/></g><g><path d="m271.679 482.094c12.819 0 23.249-10.43 23.249-23.25 0-12.819-10.43-23.249-23.249-23.249h-31.357c-12.82 0-23.25 10.43-23.25 23.249 0 12.82 10.43 23.25 23.25 23.25zm-39.607-23.249c0-4.548 3.701-8.249 8.25-8.249h31.357c4.549 0 8.249 3.701 8.249 8.249 0 4.549-3.7 8.25-8.249 8.25h-31.357c-4.55-.001-8.25-3.701-8.25-8.25z"/><path d="m349.7 155.221c-7.37-7.471-16.994-11.585-27.101-11.585-11.328 0-21.867 5.24-29.212 14.012-2.118-2.529-4.508-4.754-7.1-6.655.582-3.136.913-6.307.956-9.476.299-21.898-16.623-42.811-39.422-42.811-11.329 0-21.868 5.24-29.213 14.012-7.345-8.772-17.884-14.012-29.212-14.012-21.738 0-39.423 19.159-39.423 42.708 0 20.621 11.586 40.396 33.507 57.188 15.914 12.191 31.668 18.592 32.331 18.858 1.886.73 3.77.722 5.652-.023.215-.089 4.079-1.691 9.819-4.73 5.566 10.966 14.633 21.368 26.976 30.824 15.914 12.191 31.668 18.592 32.331 18.858 1.886.73 3.77.722 5.652-.023.656-.27 16.248-6.752 32.072-18.979 21.773-16.821 33.43-36.512 33.708-56.943.162-11.741-4.33-23.123-12.321-31.223zm-131.116 47.073c-11.438-5.294-53.611-27.113-53.611-60.879 0-15.278 10.956-27.708 24.423-27.708 9.554 0 18.288 6.392 22.25 16.284 2.467 6.156 11.458 6.157 13.924 0 3.963-9.892 12.697-16.284 22.251-16.284 15.875 0 25.576 16.341 24.239 30.798-25.678-5.667-47.309 17.134-47.309 41.839 0 4.076.46 8.119 1.356 12.112-3.083 1.688-5.699 2.981-7.523 3.838zm74.771 44.926c-11.449-5.301-53.604-27.118-53.604-60.876 0-15.278 10.956-27.708 24.423-27.708 9.554 0 18.288 6.392 22.251 16.284 2.466 6.156 11.458 6.156 13.924 0 3.963-9.892 12.696-16.284 22.25-16.284 14.564 0 24.61 13.998 24.425 27.606-.458 33.564-42.294 55.605-53.669 60.978z"/><path d="m317.685 299.552h-123.37c-9.385 0-9.813 15 0 15h123.369c9.386 0 9.813-15 .001-15z"/><path d="m300.297 339.773h-88.593c-9.385 0-9.813 15 0 15h88.593c9.385 0 9.813-15 0-15z"/><path d="m483.431 279.205h-74.312v-251.647c0-15.196-12.362-27.558-27.558-27.558h-251.122c-15.195 0-27.558 12.362-27.558 27.558v158.772h-74.312c-15.753 0-28.569 12.725-28.569 28.366v42.53c0 15.642 12.816 28.367 28.569 28.367h7.989l22.513 22.297c1.433 1.419 3.34 2.171 5.279 2.171.972 0 1.953-.189 2.885-.578 2.794-1.165 4.613-3.896 4.613-6.922v-16.968h31.033v198.85c0 15.195 12.362 27.558 27.558 27.558h17.561c9.385 0 9.813-15 0-15h-17.561c-6.924 0-12.558-5.633-12.558-12.558v-60.943h276.238v60.942c0 6.924-5.634 12.558-12.559 12.558h-197.56c-9.385 0-9.813 15 0 15h197.561c15.196 0 27.559-12.362 27.559-27.558v-105.974h31.032v16.968c0 6.448 8.012 10.049 12.777 5.329l22.513-22.296h7.989c15.753 0 28.569-12.725 28.569-28.367v-42.53c0-15.642-12.816-28.367-28.569-28.367zm-419.082-8.613c-4.142 0-7.5 3.358-7.5 7.5v6.484l-11.927-11.813c-1.404-1.391-3.301-2.171-5.278-2.171h-11.075c-7.482 0-13.569-5.996-13.569-13.367v-42.53c0-7.37 6.087-13.366 13.569-13.366h99.731c7.482 0 13.569 5.996 13.569 13.366v42.53c0 7.371-6.087 13.367-13.569 13.367zm329.77 137.908h-276.238v-122.908h10.419c15.753 0 28.569-12.725 28.569-28.367v-42.53c0-15.641-12.816-28.366-28.569-28.366h-10.418v-128.766l11.46-.011c61.003-.057 124.083-.116 186.179-.743 9.682-.097 9.487-15.178-.151-14.999-62.027.626-125.073.685-186.042.742l-11.446.011v-15.005c0-6.924 5.633-12.558 12.558-12.558h251.122c6.925 0 12.559 5.633 12.559 12.558v13.937c-11.078.01-21.813.031-33.64.147-9.681.095-9.491 15.192.146 14.999 11.759-.115 22.454-.136 33.493-.146v222.71h-10.42c-15.753 0-28.569 12.725-28.569 28.367v42.53c0 15.642 12.816 28.367 28.569 28.367h10.419zm102.881-58.399c0 7.371-6.087 13.367-13.569 13.367h-11.074c-1.977 0-3.873.78-5.277 2.171l-11.928 11.813v-6.484c0-4.142-3.357-7.5-7.5-7.5h-63.952c-7.482 0-13.569-5.996-13.569-13.367v-42.53c0-7.371 6.087-13.367 13.569-13.367h99.73c7.482 0 13.569 5.996 13.569 13.367v42.53z"/></g></g></svg>