<svg height="512" viewBox="0 0 512 512" width="512" xmlns="http://www.w3.org/2000/svg"><g id="Conversation-2" data-name="Conversation"><path d="m408 16v184h-32v56l-56-56h-208v-184z" fill="#57a4ff"/><g fill="#004fac"><path d="m408 8h-296a8 8 0 0 0 -8 8v184a8 8 0 0 0 8 8h204.687l53.656 53.657a8 8 0 0 0 13.657-5.657v-48h24a8 8 0 0 0 8-8v-184a8 8 0 0 0 -8-8zm-8 184h-24a8 8 0 0 0 -8 8v36.687l-42.343-42.344a8 8 0 0 0 -5.657-2.343h-200v-168h280z"/><path d="m176 80h160a8 8 0 0 0 0-16h-160a8 8 0 0 0 0 16z"/><path d="m176 112h160a8 8 0 0 0 0-16h-160a8 8 0 0 0 0 16z"/><path d="m176 144h79a8 8 0 0 0 0-16h-79a8 8 0 0 0 0 16z"/><path d="m288 128h-8a8 8 0 0 0 0 16h8a8 8 0 0 0 0-16z"/><path d="m408 304h-204.687l-53.656-53.657a8 8 0 0 0 -13.657 5.657v48h-24a8 8 0 0 0 -8 8v184a8 8 0 0 0 8 8h296a8 8 0 0 0 8-8v-184a8 8 0 0 0 -8-8zm-8 184h-280v-168h24a8 8 0 0 0 8-8v-36.687l42.343 42.344a8 8 0 0 0 5.657 2.343h200z"/><path d="m168 376a8 8 0 0 0 8 8h160a8 8 0 0 0 0-16h-160a8 8 0 0 0 -8 8z"/><path d="m336 400h-160a8 8 0 0 0 0 16h160a8 8 0 0 0 0-16z"/><path d="m255 432h-79a8 8 0 0 0 0 16h79a8 8 0 0 0 0-16z"/><path d="m288 432h-8a8 8 0 0 0 0 16h8a8 8 0 0 0 0-16z"/></g></g></svg>