<?xml version="1.0" encoding="UTF-8"?>
<svg xmlns="http://www.w3.org/2000/svg" id="Outline" viewBox="0 0 512 512" width="512" height="512"><path d="M443.338,439.234C423.122,434.569,396.367,432,368,432s-55.122,2.569-75.338,7.234C267.992,444.927,256,453.028,256,464s11.992,19.073,36.662,24.766C312.878,493.431,339.633,496,368,496s55.122-2.569,75.338-7.234C468.008,483.073,480,474.972,480,464S468.008,444.927,443.338,439.234Zm-7.9,34.877C416.916,477.909,392.966,480,368,480s-48.916-2.091-67.438-5.889c-18.227-3.736-25.789-8.013-28.039-10.111,2.25-2.1,9.812-6.375,28.039-10.111C319.084,450.091,343.034,448,368,448s48.916,2.091,67.438,5.889c18.227,3.736,25.789,8.013,28.039,10.111C461.227,466.1,453.665,470.375,435.438,474.111Z"/><path d="M200,448.309V368a39.975,39.975,0,0,0-3.353-16H224a32,32,0,0,0,0-64H200V272h24a8,8,0,0,0,8-8V248a8,8,0,0,0-16,0v8H200V168.773c0-30.226,18.252-64.288,48.826-91.114C280.312,50.032,319.518,34.051,360,32.185V259.554c-8.489,5.858-26.5,21.786-30.968,53.509a32.331,32.331,0,0,0-9.47,4.281C312.463,322.077,304,331.931,304,352a8,8,0,0,0,16,0c0-12.22,4-18.219,8.064-21.168.657,23.577,9.3,39.028,14.479,46.194l-13.7,27.4A8,8,0,0,0,336,416h64a8,8,0,0,0,7.155-11.578l-13.7-27.4c5.173-7.162,13.812-22.6,14.478-46.149C411.958,333.832,416,339.824,416,352a8,8,0,0,0,16,0c0-20.069-8.463-29.923-15.562-34.656a32.331,32.331,0,0,0-9.47-4.281C402.5,281.34,384.489,265.412,376,259.554V24a8,8,0,0,0-8-8c-47.18,0-93.251,17.626-129.727,49.633C204.289,95.452,184,134.009,184,168.773V278.148A23.887,23.887,0,0,0,168,272V245.835A16,16,0,0,0,176,232V216a16.019,16.019,0,0,0-16-16h-8.558A36.668,36.668,0,0,0,160,176v-8a8,8,0,0,0,8-8V128a56.077,56.077,0,0,0-35.234-51.991,24,24,0,1,0-41.532,0A56.077,56.077,0,0,0,56,128v28.883C49.522,164.265,32,186.919,32,216v16a16,16,0,0,0,8,13.835V312a39.962,39.962,0,0,0,16,31.978V344a39.788,39.788,0,0,0,8.022,24H48a8,8,0,0,0-8,8v32a8,8,0,0,0,8,8h8v72a8,8,0,0,0,16,0V416h48v64a16.019,16.019,0,0,0,16,16H240a8,8,0,0,0,8-8,37,37,0,0,0-7.6-20.8C230.448,453.931,214.144,449.428,200,448.309Zm176.845-68.731L387.056,400H348.944l10.211-20.422a7.923,7.923,0,0,0-1.455-9.191C357.141,369.81,344,355.929,344,328a89.669,89.669,0,0,1,1-13.58,50.177,50.177,0,0,0,45.987,0A89.234,89.234,0,0,1,392,328c0,27.929-13.141,41.81-13.657,42.343A8,8,0,0,0,376.845,379.578Zm10.013-80.719-.515-.516.092-.09c-.251.235-6.286,5.747-18.435,5.747s-18.184-5.512-18.435-5.747l.092.09-.555.555c5.483-14.037,14.059-21.9,18.889-25.434C372.794,277,381.362,284.863,386.858,298.859ZM168,432h16v19.174a78.4,78.4,0,0,0-16-2.865Zm72-112a16.019,16.019,0,0,1-16,16H219.7a31.885,31.885,0,0,0,0-32H224A16.019,16.019,0,0,1,240,320Zm-64-24a8,8,0,0,0,8,8h8a16,16,0,0,1,0,32H160V296a8,8,0,0,1,16,0Zm-32,0v8h-8V248h16v30.131A23.943,23.943,0,0,0,144,296Zm0,40H80a24.028,24.028,0,0,1-24-24V248h64v56H88V272a8,8,0,0,0-16,0v32a16.019,16.019,0,0,0,16,16h56Zm0-160c0,16.579-16.072,24-32,24s-32-7.421-32-24v-8h64Zm8-24H136V136h16Zm-32,0H104V136h16Zm-32,0H72V136H88ZM64,172.481V176a36.668,36.668,0,0,0,8.558,24H50.235A85.11,85.11,0,0,1,64,172.481ZM104,64a8,8,0,1,1,8,8A8.009,8.009,0,0,1,104,64Zm8,24A40.067,40.067,0,0,1,151.2,120H72.805A40.067,40.067,0,0,1,112,88Zm48,128,.01,16H48V216Zm-86.826,135.4A40,40,0,0,0,80,352h97.88A24.014,24.014,0,0,1,184,368v48H168V376a8,8,0,0,0-16,0v40H136V376a8,8,0,0,0-8-8H96A24.04,24.04,0,0,1,73.174,351.405ZM56,400V384h64v16Zm80,80V432h16v24a8,8,0,0,0,8,8c24.607,0,34.081,8.956,37.727,16Zm78.725,0a38.713,38.713,0,0,0-6.325-12.8c-.487-.648-1-1.259-1.516-1.866,13.824,2.753,20.049,9.268,22.843,14.666Z"/></svg>
