<svg height="512pt" viewBox="0 -2 512 512" width="512pt" xmlns="http://www.w3.org/2000/svg"><path d="m136.21875 95.1875c0-47.859375 48.503906-86.652344 108.339844-86.652344 59.832031 0 108.339844 38.792969 108.339844 86.652344 0 40.402344-34.574219 74.34375-81.347657 83.9375-.050781 27.835938 2.769531 52.128906 2.769531 52.128906-21.003906-10.652344-35.476562-30.738281-45.179687-50.292968-52.53125-5.988282-92.921875-42.105469-92.921875-85.773438zm0 0" fill="#ffb954"/><path d="m97.359375 289.519531c36.335937-7.429687 59.800781-42.105469 71.316406-64.140625-16.953125-13.964844-40.417969-19.3125-62.894531-12.128906-35.167969 11.238281-54.566406 48.855469-43.328125 84.023438l16.761719 52.457031c43.117187-8.042969 18.144531-60.210938 18.144531-60.210938zm0 0" fill="#6289fa"/><path d="m152.546875 399.050781-6.710937 20.121094c-5.671876 17.011719-24.0625 26.203125-41.074219 20.53125-17.011719-5.675781-26.203125-24.066406-20.53125-41.078125l3.425781-10.273438c-44.28125 10.175782-77.617188 54.582032-77.617188 107.824219h193.921876c0-42.074219-20.828126-78.621093-51.414063-97.125zm0 0" fill="#6289fa"/><path d="m206.570312 309.035156-16.761718-52.457031c-4.058594-12.691406-11.558594-23.316406-21.132813-31.199219-11.515625 22.035156-34.980469 56.710938-71.316406 64.140625 0 0 24.972656 52.167969-18.140625 60.214844 2.886719 9.035156 7.523438 17.019531 13.40625 23.722656l-8.394531 25.171875c-5.671875 17.011719 3.519531 35.402344 20.53125 41.074219s35.402343-3.519531 41.074219-20.53125l7.832031-23.808594c3.199219-.527343 6.394531-1.285156 9.574219-2.300781 35.167968-11.238281 54.566406-48.859375 43.328124-84.027344zm0 0" fill="#fcc89d"/><path d="m406.21875 213.25c-35.167969-11.238281-72.789062 8.160156-84.023438 43.328125 19.816407 11.433594 42.664063-12.433594 42.664063-12.433594s17.6875 80.660157 81.769531 62.257813l2.917969-9.128906c11.238281-35.167969-8.160156-72.785157-43.328125-84.023438zm0 0" fill="#6289fa"/><path d="m446.628906 306.40625c-64.082031 18.398438-81.769531-62.261719-81.769531-62.261719s-22.847656 23.867188-42.667969 12.433594l-16.761718 52.457031c-11.238282 35.167969 8.160156 72.789063 43.328124 84.027344 1.703126.542969 3.414063.992188 5.125 1.394531v8.757813c0 21.023437 17.042969 38.0625 38.0625 38.0625 21.019532 0 38.0625-17.039063 38.0625-38.0625l-10.644531-29.746094c5.886719-6.703125 10.53125-14.691406 13.421875-23.738281zm0 0" fill="#fcc89d"/><path d="m466.757812 409.402344.011719-.019532c6.511719-8.089843 10.417969-18.367187 10.417969-29.558593 0-23.324219-16.925781-42.679688-39.164062-46.488281l-5.242188 16.398437c-2.867188 8.980469-7.464844 16.925781-13.296875 23.601563.046875-.054688.09375-.101563.140625-.15625l10.378906 30.035156c0 21.023437-17.039062 38.0625-38.0625 38.0625-21.019531 0-38.058594-17.039063-38.058594-38.0625v-2.527344c-27.523437 19.414062-45.847656 54.023438-45.847656 93.496094h193.925782c0-34.125-13.707032-64.601563-35.203126-84.78125zm0 0" fill="#6289fa"/><path d="m281.652344 188.558594c48.257812-12.917969 81.285156-49.757813 81.285156-91.867188 0-26.257812-12.609375-50.804687-35.503906-69.113281-22.234375-17.785156-51.667969-27.578125-82.875-27.578125-31.210938 0-60.644532 9.792969-82.878906 27.578125-22.890626 18.308594-35.5 42.855469-35.5 69.113281 0 23.839844 10.664062 46.722656 30.027343 64.425782 17.425781 15.933593 40.835938 26.691406 66.40625 30.601562 12.644531 23.71875 28.496094 40.523438 47.167969 49.992188 7.019531 3.558593 15.414062-2.328126 14.511719-10.109376-.023438-.214843-2.238281-19.53125-2.640625-43.042968zm-12.117188-17.761719c-4.664062.957031-8.015625 5.054687-8.023437 9.816406-.019531 11.679688.445312 22.679688 1.003906 31.625-9.140625-8.515625-17.304687-19.964843-24.382813-34.234375-1.511718-3.050781-4.472656-5.128906-7.855468-5.511718-47.898438-5.460938-84.019532-38.046876-84.019532-75.800782 0-42.246094 44.097657-76.613281 98.300782-76.613281s98.296875 34.367187 98.296875 76.613281c.003906 34.777344-30.148438 65.25-73.320313 74.105469zm0 0"/><path d="m253.851562 89.996094c-1.550781-3.757813-5.332031-6.222656-9.386718-6.191406-4.214844.03125-8.023438 2.828124-9.386719 6.804687-1.375 4.015625.023437 8.613281 3.394531 11.1875 3.316406 2.53125 7.957032 2.742187 11.488282.511719 4.0625-2.570313 5.726562-7.867188 3.890624-12.3125zm0 0"/><path d="m224.234375 85.488281c-3.433594-2.269531-8.003906-2.203125-11.371094.160157-3.441406 2.414062-5.007812 6.914062-3.847656 10.945312 1.164063 4.039062 4.824219 6.988281 9.015625 7.257812 4.246094.269532 8.265625-2.257812 9.898438-6.175781 1.8125-4.339843.246093-9.582031-3.695313-12.1875zm0 0"/><path d="m276.070312 85.488281c-3.441406-2.269531-8.003906-2.199219-11.371093.160157-3.449219 2.414062-5.003907 6.910156-3.84375 10.945312 1.15625 4.039062 4.816406 6.988281 9.007812 7.257812 4.238281.269532 8.28125-2.257812 9.910157-6.175781 1.804687-4.339843.234374-9.585937-3.703126-12.1875zm0 0"/><path d="m211.230469 366.128906c9.414062-18.253906 11.152343-39.082031 4.902343-58.644531l-16.761718-52.457031c-4.503906-14.085938-12.910156-26.5-24.3125-35.890625-20.292969-16.71875-47.332032-21.933594-72.332032-13.945313-19.5625 6.253906-35.519531 19.746094-44.933593 38-9.410157 18.257813-11.152344 39.082032-4.902344 58.644532l16.765625 52.460937c2.683594 8.398437 6.691406 16.011719 11.710938 22.695313l-1.519532 4.558593c-46.59375 13.675781-79.847656 61.507813-79.847656 116.132813 0 5.542968 4.496094 10.039062 10.039062 10.039062h193.921876c5.546874 0 10.039062-4.496094 10.039062-10.039062 0-37.898438-15.847656-73.058594-42.222656-95.554688 17.054687-6.886718 30.9375-19.484375 39.453125-36zm-135.59375-113.734375c6.957031-13.484375 18.746093-23.457031 33.199219-28.078125 5.699218-1.820312 11.539062-2.710937 17.335937-2.710937 10.300781 0 20.453125 2.816406 29.390625 8.246093-6.011719 10.25-13.03125 19.914063-21.3125 28.449219-8.34375 8.59375-18.285156 15.90625-29.539062 20.164063-3.261719 1.234375-6.589844 1.96875-9.945313 2.863281-2.761719.738281-5.125 2.667969-6.394531 5.230469-1.332032 2.675781-1.386719 5.800781-.179688 8.527344.039063.085937.0625.171874.101563.257812.464843.980469 1.015625 2.261719 1.59375 3.761719 3 7.847656 6.914062 22.335937 2.945312 31.832031-1.394531 3.332031-3.933593 5.976562-7.113281 7.667969l-13.703125-42.882813c-4.617187-14.453125-3.332031-29.839844 3.621094-43.328125zm63.941406 155.3125-3.265625 9.792969c-.238281.710938-.507812 1.40625-.808594 2.082031-2.109375 4.722657-5.753906 8.542969-10.441406 10.886719-5.359375 2.679688-11.441406 3.109375-17.125 1.214844-5.683594-1.894532-10.292969-5.890625-12.96875-11.25-2.679688-5.359375-3.109375-11.441406-1.214844-17.125l3.523438-10.5625c.058594.042968.121094.082031.179687.128906.652344.472656 1.308594.933594 1.972657 1.386719.085937.058593.171874.121093.257812.179687 11.707031 7.9375 25.511719 12.628906 39.890625 13.265625zm53.910156 79.9375h-172.96875c3.191407-36.316406 23.511719-67.683593 52.242188-81.875-.898438 8.082031.613281 16.371094 4.246093 23.640625 5.078126 10.15625 13.804688 17.730469 24.578126 21.320313 10.640624 3.550781 22.417968 2.710937 32.453124-2.300781 10.15625-5.078126 17.730469-13.804688 21.320313-24.574219l2.429687-7.285157c20.203126 16.71875 33.210938 42.519532 35.699219 71.074219zm-33.300781-102.640625c-19.871094 6.347656-42.257812.953125-57.144531-13.636718-4.128907-4.046876-7.628907-8.738282-10.335938-13.84375 7.941407-3.609376 14.535157-9.769532 18.175781-17.746094 5.65625-12.390625 3.917969-26.84375 1.089844-37.585938-.339844-1.289062-.839844-2.539062-1.164062-3.824218-.03125-.117188-.042969-.238282-.039063-.359376-.21875-.304687-.128906-.460937.265625-.464843.273438-.207031.792969-.292969 1.109375-.417969.683594-.261719 1.363281-.535156 2.039063-.820312 2.929687-1.21875 5.792968-2.589844 8.582031-4.097657 4.9375-2.664062 9.609375-5.832031 14.023437-9.285156 8.921876-6.976563 16.742188-15.34375 23.621094-24.320313 3.742188-4.882812 7.214844-9.972656 10.4375-15.214843 4.140625 5.277343 7.328125 11.273437 9.394532 17.75l16.765624 52.457031c9.535157 29.839844-6.984374 61.875-36.820312 71.410156zm0 0"/><path d="m479.628906 409.773438c4.933594-8.617188 7.597656-18.449219 7.597656-28.445313 0-24.058594-14.804687-44.964844-36.476562-53.332031l8.359375-26.160156c12.90625-40.382813-9.449219-83.738282-49.835937-96.644532-19.5625-6.253906-40.386719-4.511718-58.640626 4.902344-18.253906 9.414062-31.75 25.371094-38.003906 44.933594l-16.761718 52.457031c-6.25 19.5625-4.511719 40.390625 4.902343 58.644531 8.25 16.003906 21.535157 28.347656 37.871094 35.363282-25.632813 22.664062-40.640625 57.011718-40.640625 94.199218 0 5.542969 4.496094 10.039063 10.039062 10.039063h83.90625c5.546876 0 10.039063-4.496094 10.039063-10.039063 0-5.542968-4.492187-10.039062-10.039063-10.039062h-73.4375c2.144532-24.933594 12.226563-47.671875 28.316407-64.253906 5.308593 14.3125 17.476562 25.523437 32.171875 29.644531 4.207031 1.179687 8.578125 1.78125 12.949218 1.78125 26.523438 0 48.101563-21.578125 48.101563-48.101563 0-.171875-.003906-.347656-.015625-.519531 4.660156 2.367187 9.148438 5.203125 13.390625 8.480469 2.167969 1.683594 4.265625 3.460937 6.273437 5.335937 17.644532 16.496094 29.421876 40.695313 31.789063 67.632813h-19.246094c-5.542969 0-10.039062 4.496094-10.039062 10.039062 0 5.542969 4.496093 10.039063 10.039062 10.039063h29.722657c5.542968 0 10.039062-4.496094 10.039062-10.039063 0-33.210937-12.285156-63.882812-32.371094-85.917968zm-35.003906-62.605469c13.4375 5.707031 22.523438 18.96875 22.523438 34.160156 0 5.03125-.980469 9.882813-2.878907 14.382813-4.925781-3.675782-10.117187-6.886719-15.503906-9.597657-3.988281-2.011719-8.113281-3.691406-12.316406-5.191406-.996094-.355469-2.007813-.652344-3.011719-.972656-.625-.195313-1.316406-.226563-1.636719-.769531-.429687-.726563-.601562-1.746094-.878906-2.542969 5-6.75 8.835937-14.242188 11.425781-22.34375zm-84.792969-119.230469c13.488281-6.953125 28.875-8.238281 43.332031-3.621094 14.453126 4.621094 26.242188 14.59375 33.199219 28.078125 6.953125 13.488281 8.238281 28.878907 3.621094 43.332031-.351563 1.101563-.558594 2.5-1.121094 3.503907-.058593.105469-.050781.21875-.128906.289062-.351563.320313-1.71875.324219-2.199219.402344-1.351562.21875-2.710937.386719-4.074218.507813-5.609376.492187-11.296876-.007813-16.667969-1.734376-2.9375-.941406-5.769531-2.226562-8.417969-3.800781-24.21875-14.382812-32.632812-51.039062-32.710938-51.390625-1.410156-6.429687-8.875-9.851562-14.652343-6.632812-2.257813 1.257812-4.050781 3.4375-6.050781 5.0625-2.417969 1.964844-4.980469 3.769531-7.691407 5.300781-3.132812 1.765625-6.546875 3.21875-10.128906 3.703125 5.382813-9.789062 13.542969-17.761719 23.691406-23zm-44.839843 85.660156 13.664062-42.753906c10.914062 1.683594 21.917969-2.300781 31.019531-8.109375.179688.472656.363281.945313.546875 1.417969 5.046875 12.945312 14.25 30.789062 29.582032 42.953125 9.34375 7.414062 20.589843 12.175781 32.492187 13.304687 3.234375.304688 6.496094.359375 9.738281.183594-1.191406 3.730469-5.785156 18.101562-6.886718 21.558594-1.480469 4.625-2.875 9.246094-4.984376 13.636718-2.121093 4.410157-4.875 8.550782-8.078124 12.25-10.683594 12.328126-26.339844 19.597657-42.796876 19.660157-5.910156.007812-11.847656-.894531-17.476562-2.695313-29.835938-9.535156-46.355469-41.570312-36.820312-71.40625zm76.953124 119.148438c-10.878906 0-21.019531-6.5625-25.515624-16.460938-1.246094-2.738281-2.050782-5.675781-2.359376-8.667968 2.75.1875 5.519532.210937 8.273438.09375 15.445312-.625 30.371094-5.902344 42.8125-15.222657l4.769531 13.796875c-.816406 14.726563-13.054687 26.460938-27.980469 26.460938zm0 0"/><path d="m437.648438 487.339844c-3.625-2.433594-8.566407-2.183594-11.941407.59375-3.101562 2.550781-4.398437 6.824218-3.226562 10.667968 1.238281 4.070313 5.015625 6.972657 9.269531 7.125 4.1875.144532 8.128906-2.464843 9.664062-6.351562 1.71875-4.355469.117188-9.433594-3.765624-12.035156zm0 0"/></svg>